<?xml version="1.0" standalone="no"?><!DOCTYPE svg PUBLIC "-//W3C//DTD SVG 1.1//EN" "http://www.w3.org/Graphics/SVG/1.1/DTD/svg11.dtd"><svg t="1735647690091" class="icon" viewBox="0 0 1365 1024" version="1.1" xmlns="http://www.w3.org/2000/svg" p-id="16285" width="63.984375" height="48" xmlns:xlink="http://www.w3.org/1999/xlink"><path d="M1365.368445 489.213436v45.694464c-0.469345 2.517396-0.981358 4.949456-1.237364 7.381516-2.266723 19.925826-3.797427 39.892987-7.040174 59.601475-11.306946 67.369667-34.730193 127.572489-68.095018 180.948476l1.20003-2.090718c-50.047905 82.135365-120.536315 147.41298-204.499726 189.823363l-2.858737 1.322699c-46.463816 23.935259-100.522487 40.874345-157.694568 47.743848l-2.304057 0.213338c-12.330972 1.49337-24.745946 2.773402-37.076918 4.133436H406.144715a70.816419 70.816419 0 0 0-7.296181-1.365367 402.635294 402.635294 0 0 1-141.783508-35.020867l2.517396 1.024026Q114.750839 924.174864 43.903753 780.197968a406.058046 406.058046 0 0 1-39.635647-132.820619l-0.213339-2.000049-4.053434-34.266181v-44.373098a62.222873 62.222873 0 0 0 1.3227-7.381516 415.047601 415.047601 0 0 1 27.176672-126.544464l-0.981358 2.81607q61.120179-160.446636 212.649261-237.739215c48.426531-25.04462 105.343939-40.917012 165.630765-43.77575l0.933356-0.042668c6.400158-0.341342 13.86701-0.512013 21.375196-0.512012a463.524801 463.524801 0 0 1 66.601647 4.821452l-2.474728-0.298674a6.60683 6.60683 0 0 0 0.933357 0.042668 10.573595 10.573595 0 0 0 7.125509-2.730734 507.951233 507.951233 0 0 1 136.971389-101.633181l2.901405-1.3227c46.677155-24.020594 100.991832-41.045015 158.377252-48.001187l2.304057-0.213339c13.306996-1.534705 26.581991-2.857404 39.807651-4.221438h40.95968c2.602731 0.38401 5.333465 0.896022 7.978864 1.20003 20.309836 2.43206 40.667673 3.968098 60.757503 7.381516 65.961632 11.600287 124.803088 35.200871 176.724372 68.607031l-1.877379-1.152029c81.578018 51.413272 146.136949 123.135046 187.471304 208.211818l1.3227 2.98674c23.600584 47.359838 40.319664 102.402533 47.018496 160.510638l0.213339 2.304057c1.49337 13.013655 2.730734 26.068645 4.096101 39.0823z m-763.430887-295.807318c0.853354 1.152029 1.066693 1.664041 1.408035 1.834712a545.504162 545.504162 0 0 1 80.212651 49.322554c1.578706 1.152029 5.589472 0.682684 7.509519-0.554681 69.503053-44.757107 144.895585-60.24549 225.833587-45.610461 79.359297 14.293687 143.914227 54.613351 193.235448 118.996277 55.850715 72.831135 77.183243 155.305176 61.781528 246.910108-10.368257 61.440187-34.602189 116.606885-75.647205 162.772027-75.092524 84.180749-169.129518 118.996277-279.762921 104.277247-68.095018-9.088225-126.847138-38.954297-175.572344-88.959534-62.464212-64.169588-125.396436-127.86983-188.031318-191.871414-8.362874-8.533544-17.621769-15.36038-29.652734-16.896418a46.958495 46.958495 0 0 0-49.023879 27.007335l-0.133337 0.298674c-8.0642 17.067089-7.040174 36.400901 10.533594 53.930667 69.801727 69.759059 139.050107 140.074132 208.766498 209.918527a341.653786 341.653786 0 0 0 38.366283 33.107486c50.986595 37.58893 108.416016 58.410778 170.670889 66.772318 48.810541 6.613497 97.27974 5.120127 145.364929-5.80281 91.690268-20.992519 167.721483-68.564363 227.540296-142.036847a407.694086 407.694086 0 0 0 89.428879-206.718448l0.213339-2.04805a404.36067 404.36067 0 0 0 3.75476-55.808048 419.198371 419.198371 0 0 0-7.893529-81.068672l0.426677 2.645399c-13.86701-72.233787-43.989088-137.002056-92.159613-192.126086-92.03161-105.002598-207.827808-151.891758-345.555216-141.482167a379.004043 379.004043 0 0 0-152.201098 45.922469l1.962715-0.981358a395.365781 395.365781 0 0 0-71.935113 48.810541l0.55468-0.469345z m-33.706167 733.351476a585.57582 585.57582 0 0 1-6.058816-5.717475l0.384009 0.38401c-28.502038-27.435345-57.209415-54.613351-85.460781-82.432706a22.791231 22.791231 0 0 0-17.23776-7.808193h-0.981357c-28.543373 0.682684-57.173414 0.810687-85.335445-5.674807-139.988797-32.134128-221.310808-186.921958-169.684198-323.111994 40.667673-107.475992 153.385128-172.841609 264.48921-152.702444 49.791898 9.045557 93.52498 30.506088 129.364534 68.095018 43.818417 45.951803 88.874199 90.580908 133.119293 136.020698 10.026915 10.368257 21.632535 15.067039 35.54088 13.098991 17.963111-2.602731 32.383468-11.392282 38.868961-29.35406 6.357491-17.621769 3.285415-34.431518-9.856244-48.001187-46.421148-47.786516-91.775604-96.810395-140.074132-142.634196-93.695651-88.788863-204.115716-115.241518-326.312072-77.481917C164.692074 320.253256 68.521695 492.796192 106.067957 663.03507c34.267514 155.134505 167.636147 263.977197 323.75201 264.147868h130.772568c2.176054 0 4.30944-0.213339 7.637523-0.384009z" fill="#D41818" p-id="16286"></path></svg>