<svg xmlns="http://www.w3.org/2000/svg" viewBox="0 0 1024 1024"><path fill="#F0C48A" d="M98 512a414 414 0 1 0 828 0 414 414 0 1 0-828 0z"/><path fill="#7BABF1" d="M864.8 948.8h-638c-43.6 0-78.8-35.4-78.8-78.8V90.6c0-43.6 35.4-78.8 78.8-78.8h638c43.6 0 78.8 35.4 78.8 78.8V870c0 43.4-35.2 78.8-78.8 78.8z"/><path fill="#4C4372" d="M864.8 960.6h-638c-50 0-90.6-40.6-90.6-90.6V90.6C136 40.6 176.8 0 226.6 0h638c50 0 90.6 40.6 90.6 90.6V870c.2 49.8-40.4 90.6-90.4 90.6zM226.6 23.4c-37 0-67.2 30.2-67.2 67.2V870c0 37 30.2 67.2 67.2 67.2h638c37 0 67.2-30.2 67.2-67.2V90.6c0-37-30.2-67.2-67.2-67.2h-638z"/><path fill="#FFF" d="M797.4 1012.2h-638c-43.6 0-78.8-35.4-78.8-78.8V154c0-43.6 35.4-78.8 78.8-78.8h638c43.6 0 78.8 35.4 78.8 78.8v779.2c0 43.8-35.4 79-78.8 79z"/><path fill="#D3E6F8" d="M826.8 1006.6c29-11.6 49.4-40 49.4-73.2V240h-49.4v766.6zM797.4 75.2h-638c-43.6 0-78.8 35.4-78.8 78.8v86h795.8v-86c-.2-43.4-35.6-78.8-79-78.8z"/><path fill="#7BABF1" d="M826.8 81v159h49.4v-86c0-33-20.4-61.4-49.4-73zm-686.893 98.76a30.2 30.2 0 1 0 42.709-42.71 30.2 30.2 0 1 0-42.709 42.71z"/><path fill="#FFF" d="M236.279 179.69a30.2 30.2 0 1 0 42.708-42.71 30.2 30.2 0 1 0-42.709 42.71z"/><path fill="#FD919E" d="M332.507 179.763a30.2 30.2 0 1 0 42.708-42.71 30.2 30.2 0 1 0-42.708 42.71z"/><path fill="#4C4372" d="M797.4 1024h-638c-50 0-90.6-40.6-90.6-90.6V154c0-50 40.6-90.6 90.6-90.6h638c50 0 90.6 40.6 90.6 90.6v779.2c0 50.2-40.8 90.8-90.6 90.8zM159.2 87c-37 0-67.2 30-67.2 67v779.2c0 37 30.2 67.2 67.2 67.2h638c37 0 67.2-30.2 67.2-67.2V154c0-37-30.2-67.2-67.2-67.2h-638z"/><path fill="#4C4372" d="M876.2 251.8H80.4c-6.4 0-11.8-5.2-11.8-11.8 0-6.4 5.2-11.8 11.8-11.8h795.8c6.4 0 11.8 5.2 11.8 11.8 0 6.6-5.4 11.8-11.8 11.8zm-715-51.6c-23 0-41.8-18.8-41.8-41.8s18.8-41.8 41.8-41.8c23 0 41.8 18.8 41.8 41.8s-18.6 41.8-41.8 41.8zm0-60.2c-10.2 0-18.4 8.2-18.4 18.4s8.2 18.4 18.4 18.4 18.4-8.2 18.4-18.4-8.2-18.4-18.4-18.4zm96.4 60.2c-23 0-41.8-18.8-41.8-41.8s18.8-41.8 41.8-41.8c23 0 41.8 18.8 41.8 41.8s-18.8 41.8-41.8 41.8zm0-60.2c-10.2 0-18.4 8.2-18.4 18.4s8.2 18.4 18.4 18.4 18.4-8.2 18.4-18.4-8.4-18.4-18.4-18.4zm96.2 60.2c-23 0-41.8-18.8-41.8-41.8s18.8-41.8 41.8-41.8c23 0 41.8 18.8 41.8 41.8s-18.6 41.8-41.8 41.8zm0-60.2c-10.2 0-18.4 8.2-18.4 18.4s8.2 18.4 18.4 18.4 18.4-8.2 18.4-18.4S364 140 353.8 140z"/><path fill="#FD919E" d="M711.2 666v-67.6h-59.6a177.66 177.66 0 0 0-26.8-65l42.2-42.2-47.8-47.8-42.2 42.2c-19.2-13-41.2-22.2-65-26.8v-59.6h-67.4v59.6a177.66 177.66 0 0 0-65 26.8l-42.2-42.2-47.8 47.8 42.2 42.2c-13 19.2-22.2 41.2-26.8 65h-59.6V666H305c4.6 23.6 13.8 45.6 26.8 65l-42.2 42.2 47.8 47.8 42.2-42.2c19.2 13 41.2 22.2 65 26.8v59.6H512v-59.6c23.6-4.6 45.6-13.8 65-26.8l42.2 42.2 47.8-47.8-42.2-42.2c13-19.2 22.2-41.2 26.8-65h59.6zm-234 52.6c-47.8 0-86.4-38.6-86.4-86.4s38.6-86.4 86.4-86.4c47.8 0 86.4 38.6 86.4 86.4s-38.8 86.4-86.4 86.4z"/><path fill="#4C4372" d="M477.2 730.4c-54 0-98.2-44-98.2-98.2 0-54 44-98.2 98.2-98.2s98.2 44 98.2 98.2c-.2 54.2-44.2 98.2-98.2 98.2zm0-172.8c-41.2 0-74.6 33.4-74.6 74.6 0 41.2 33.4 74.6 74.6 74.6 41.2 0 74.6-33.4 74.6-74.6 0-41.2-33.4-74.6-74.6-74.6z"/><path fill="#4C4372" d="M512 876.8h-67.4c-6.4 0-11.8-5.2-11.8-11.8v-50.2c-18.2-4.6-35.6-11.6-51.6-21.4l-35.4 35.4c-2.2 2.2-5.2 3.4-8.2 3.4s-6-1.2-8.2-3.4L281.6 781c-4.6-4.6-4.6-12 0-16.6L317 729c-9.6-16-16.8-33.4-21.4-51.6h-50.2c-6.4 0-11.8-5.2-11.8-11.8v-67.4c0-6.4 5.2-11.8 11.8-11.8h50.2c4.6-18.2 11.6-35.6 21.4-51.6l-35.4-35.4c-4.6-4.6-4.6-12 0-16.6l47.8-47.8c4.6-4.6 12-4.6 16.6 0l35.4 35.4c16-9.6 33.4-16.8 51.6-21.4v-50.2c0-6.4 5.2-11.8 11.8-11.8H512c6.4 0 11.8 5.2 11.8 11.8V449c18.2 4.6 35.6 11.6 51.6 21.4l35.4-35.4c4.6-4.6 12-4.6 16.6 0l47.8 47.8c2.2 2.2 3.4 5.2 3.4 8.2s-1.2 6-3.4 8.2l-35.4 35.4c9.6 16 16.8 33.4 21.4 51.6h50.2c6.4 0 11.8 5.2 11.8 11.8v68c0 6.4-5.2 11.8-11.8 11.8h-50.2c-4.6 18.2-11.6 35.6-21.4 51.6l35.4 35.4c2.2 2.2 3.4 5.2 3.4 8.2 0 3.2-1.2 6-3.4 8.2L627.4 829c-2.2 2.2-5.2 3.4-8.2 3.4-3.2 0-6-1.2-8.2-3.4l-35.4-35.4c-16 9.6-33.4 16.8-51.6 21.4v50.2c-.2 6.4-5.6 11.6-12 11.6zm-55.8-23.4h44v-47.8c0-5.6 4-10.4 9.4-11.6 21.8-4.2 42.2-12.6 60.6-25 4.6-3.2 10.8-2.6 14.8 1.4l33.8 33.8L650 773l-33.8-33.8c-4-4-4.6-10.2-1.4-14.8 12.4-18.4 20.8-38.8 25-60.6 1-5.6 5.8-9.4 11.6-9.4h47.8v-44h-47.8c-5.6 0-10.4-4-11.6-9.4-4.2-21.8-12.6-42.2-25-60.6-3.2-4.6-2.6-10.8 1.4-14.8l33.8-33.8-31.2-31.2-33.8 33.8c-4 4-10.2 4.6-14.8 1.4-18.4-12.4-38.8-20.8-60.6-25-5.6-1-9.4-5.8-9.4-11.6v-47.8h-44v47.8c0 5.6-4 10.4-9.4 11.6-21.8 4.2-42.2 12.6-60.6 25-4.6 3.2-10.8 2.6-14.8-1.4l-33.8-33.8-31.2 31.2 33.8 33.8c4 4 4.6 10.2 1.4 14.8-12.4 18.4-20.8 38.8-25 60.6-1 5.6-5.8 9.4-11.6 9.4h-47.8v44H305c5.6 0 10.4 4 11.6 9.4 4.2 21.8 12.6 42.2 25 60.6 3.2 4.6 2.6 10.8-1.4 14.8L306.4 773l31.2 31.2 33.8-33.8c4-4 10.2-4.6 14.8-1.4 18.4 12.4 38.8 20.8 60.6 25 5.6 1 9.4 5.8 9.4 11.6v47.8z"/></svg>